<svg width="226" height="151" viewBox="0 0 226 151" fill="none" xmlns="http://www.w3.org/2000/svg">
<path d="M187.917 131.34C198.252 131.34 206.708 122.897 206.708 112.577V18.7628C206.708 8.44328 198.252 0 187.917 0H37.5833C27.2479 0 18.7917 8.44328 18.7917 18.7628V112.577C18.7917 117.553 20.7715 122.326 24.2956 125.844C27.8197 129.363 32.5995 131.34 37.5833 131.34H9.39583C4.22812 131.34 0 135.562 0 140.721C0 145.881 4.22812 150.103 9.39583 150.103H216.104C221.272 150.103 225.5 145.881 225.5 140.721C225.5 135.562 221.272 131.34 216.104 131.34H187.917ZM122.146 98.2235V77.6782C96.0254 77.6782 78.831 85.6524 65.7708 103.196C71.0325 78.1473 85.596 53.1927 122.146 48.1267V28.1443L156.065 59.6658C158.038 61.5421 158.038 64.638 156.065 66.5143L122.146 98.2235Z" fill="#FF74D0"/>
</svg>
