<svg width="199" height="192" viewBox="0 0 199 192" fill="none" xmlns="http://www.w3.org/2000/svg">
<path fill-rule="evenodd" clip-rule="evenodd" d="M0 20.7295C0 9.27633 9.26771 0 20.7102 0H178.29C189.732 0 199 9.27633 199 20.7295V128.659C199 140.112 189.732 149.389 178.29 149.389H121.063L128.668 170.659H142.143C144.97 170.659 147.682 171.783 149.681 173.784C151.68 175.785 152.804 178.499 152.804 181.329C152.804 184.159 151.68 186.874 149.681 188.875C147.682 190.876 144.97 192 142.143 192H56.8571C54.0297 192 51.3182 190.876 49.3189 188.875C47.3196 186.874 46.1964 184.159 46.1964 181.329C46.1964 178.499 47.3196 175.785 49.3189 173.784C51.3182 171.783 54.0297 170.659 56.8571 170.659H70.3323L77.9369 149.389H20.7102C17.9905 149.389 15.2974 148.852 12.7848 147.811C10.2721 146.769 7.989 145.242 6.06588 143.317C4.14276 141.392 2.61726 139.107 1.57647 136.592C0.535686 134.077 0 131.381 0 128.659L0 20.7295ZM29.3383 71.5643C29.3383 66.6558 33.3183 62.6721 38.2222 62.6721H50.6597V50.2231C50.6597 47.8647 51.5957 45.6029 53.2618 43.9353C54.9278 42.2677 57.1875 41.3309 59.5436 41.3309C61.8998 41.3309 64.1595 42.2677 65.8255 43.9353C67.4916 45.6029 68.4276 47.8647 68.4276 50.2231V62.6721H80.8651C83.2212 62.6721 85.4809 63.609 87.147 65.2766C88.813 66.9442 89.749 69.2059 89.749 71.5643C89.749 73.9226 88.813 76.1844 87.147 77.852C85.4809 79.5196 83.2212 80.4565 80.8651 80.4565H68.4276V92.9055C68.4276 95.2639 67.4916 97.5256 65.8255 99.1933C64.1595 100.861 61.8998 101.798 59.5436 101.798C57.1875 101.798 54.9278 100.861 53.2618 99.1933C51.5957 97.5256 50.6597 95.2639 50.6597 92.9055V80.4565H38.2222C35.866 80.4565 33.6064 79.5196 31.9403 77.852C30.2743 76.1844 29.3383 73.9226 29.3383 71.5643ZM143.65 57.6925C143.65 60.9942 144.96 64.1606 147.292 66.4953C149.625 68.8299 152.788 70.1415 156.087 70.1415C159.386 70.1415 162.549 68.8299 164.882 66.4953C167.214 64.1606 168.525 60.9942 168.525 57.6925C168.525 54.3908 167.214 51.2243 164.882 48.8897C162.549 46.555 159.386 45.2434 156.087 45.2434C152.788 45.2434 149.625 46.555 147.292 48.8897C144.96 51.2243 143.65 54.3908 143.65 57.6925ZM116.06 85.4361C116.06 88.7378 117.37 91.9043 119.703 94.2389C122.035 96.5736 125.199 97.8851 128.497 97.8851C131.796 97.8851 134.959 96.5736 137.292 94.2389C139.624 91.9043 140.935 88.7378 140.935 85.4361C140.935 82.1344 139.624 78.9679 137.292 76.6333C134.959 74.2986 131.796 72.987 128.497 72.987C125.199 72.987 122.035 74.2986 119.703 76.6333C117.37 78.9679 116.06 82.1344 116.06 85.4361Z" fill="#FF74D0"/>
</svg>
