<?xml version="1.0" encoding="UTF-8"?>
<svg id="Calque_2" data-name="Calque 2" xmlns="http://www.w3.org/2000/svg" viewBox="0 0 1634.4 372.09">
  <defs>
    <style>
      .cls-1 {
        fill: #be72d6;
      }

      .cls-1, .cls-2, .cls-3, .cls-4 {
        stroke-width: 0px;
      }

      .cls-2 {
        fill: #dd73c4;
      }

      .cls-3 {
        fill: #59bece;
      }

      .cls-4 {
        fill: #6ed6a7;
      }
    </style>
  </defs>
  <g id="logo">
    <path class="cls-4" d="M159.7,100.56v263.04h-87.68V100.56H0V26.3h231.72v2.24c0,39.78-32.25,72.02-72.02,72.02h0Z"/>
    <path class="cls-4" d="M360.09,133.78h0c44.96,0,81.42,36.45,81.42,81.42v148.07h-81.42v-25.5c-17.3,21.78-40.71,32.66-70.23,32.66-16.7,0-32.06-3.06-46.08-9.17-14.02-6.11-26.25-14.69-36.68-25.72-10.44-11.03-18.56-24-24.38-38.92-5.82-14.91-8.72-31.16-8.72-48.76,0-16.4,2.83-31.98,8.5-46.75,5.66-14.76,13.57-27.66,23.71-38.69,10.14-11.03,22.21-19.75,36.23-26.17,14.01-6.41,29.52-9.62,46.52-9.62,28.63,0,52.34,10,71.13,29.97v-22.81ZM258.1,247.85c0,7.46,1.34,14.39,4.03,20.8,2.68,6.42,6.33,12.01,10.96,16.78,4.62,4.77,10.13,8.5,16.55,11.18,6.41,2.68,13.34,4.03,20.8,4.03s13.94-1.34,20.35-4.03c6.41-2.68,11.92-6.41,16.55-11.18,4.62-4.77,8.35-10.29,11.18-16.55,2.83-6.26,4.25-12.97,4.25-20.13s-1.42-13.94-4.25-20.35c-2.84-6.41-6.56-12-11.18-16.78-4.63-4.77-10.14-8.5-16.55-11.18-6.42-2.68-13.2-4.03-20.35-4.03s-14.39,1.34-20.8,4.03c-6.42,2.68-11.93,6.42-16.55,11.18-4.63,4.77-8.28,10.22-10.96,16.33-2.68,6.12-4.03,12.75-4.03,19.91Z"/>
    <path class="cls-2" d="M594.3,100.56v175.36c0,48.42-39.25,87.68-87.68,87.68h0V100.56s-72.02,0-72.02,0h0c0-41.01,33.25-74.26,74.26-74.26h157.46v74.26h-72.02Z"/>
    <path class="cls-2" d="M678.52,45.63c0-6.26,1.19-12.15,3.58-17.67,2.38-5.51,5.66-10.36,9.84-14.54,4.17-4.17,9.02-7.45,14.54-9.84,5.51-2.38,11.41-3.58,17.67-3.58s12.15,1.19,17.67,3.58c5.52,2.39,10.36,5.67,14.54,9.84,4.17,4.18,7.45,9.02,9.84,14.54,2.38,5.52,3.58,11.41,3.58,17.67s-1.2,12.16-3.58,17.67c-2.39,5.52-5.67,10.37-9.84,14.54-4.18,4.18-9.02,7.46-14.54,9.84-5.52,2.39-11.41,3.58-17.67,3.58s-12.16-1.19-17.67-3.58c-5.52-2.39-10.37-5.66-14.54-9.84-4.18-4.17-7.46-9.02-9.84-14.54-2.39-5.51-3.58-11.41-3.58-17.67ZM764.85,133.76v229.48s-80.97,0-80.97,0v-148.52c0-44.72,36.25-80.97,80.97-80.97h0Z"/>
    <path class="cls-3" d="M940.86,100.56v263.04h-87.68V100.56h-72.02c0-41.01,33.25-74.26,74.26-74.26h157.46v74.26h-72.02Z"/>
    <path class="cls-3" d="M955.9,246.84c0-17,3.42-32.88,10.29-47.64,6.86-14.76,16.4-27.58,28.63-38.47,12.22-10.88,26.76-19.46,43.62-25.72,16.84-6.26,35.26-9.39,55.25-9.39s37.95,3.06,54.8,9.17c16.85,6.12,31.46,14.61,43.84,25.5,12.37,10.89,21.99,23.86,28.85,38.92,6.86,15.06,10.29,31.69,10.29,49.88s-3.51,34.82-10.51,49.88c-7.01,15.07-16.63,28.04-28.85,38.92-12.23,10.89-26.92,19.31-44.06,25.27-17.15,5.96-35.72,8.95-55.69,8.95s-37.88-2.99-54.57-8.95c-16.71-5.96-31.09-14.46-43.17-25.5-12.08-11.03-21.55-24.23-28.41-39.59-6.86-15.36-10.29-32.43-10.29-51.22ZM1041.34,247.73c0,7.76,1.41,14.84,4.25,21.25,2.83,6.42,6.56,12.01,11.18,16.78,4.62,4.77,10.14,8.5,16.55,11.18,6.41,2.68,13.2,4.03,20.35,4.03s13.94-1.34,20.35-4.03c6.41-2.68,11.92-6.41,16.55-11.18,4.62-4.77,8.35-10.36,11.18-16.78,2.83-6.41,4.25-13.34,4.25-20.8s-1.42-13.94-4.25-20.35c-2.84-6.41-6.56-12-11.18-16.78-4.63-4.77-10.14-8.5-16.55-11.18-6.42-2.68-13.2-4.03-20.35-4.03s-13.94,1.34-20.35,4.03c-6.42,2.68-11.93,6.41-16.55,11.18-4.63,4.78-8.35,10.29-11.18,16.55-2.84,6.26-4.25,12.97-4.25,20.13Z"/>
    <path class="cls-1" d="M1375.96,100.56v263.04h0c-48.42,0-87.68-39.25-87.68-87.68V100.56h-72.02V26.3h157.46c41.01,0,74.26,33.25,74.26,74.26h0s-72.02,0-72.02,0Z"/>
    <path class="cls-1" d="M1471.12,134.11v129.28c0,28.34,13.71,42.5,41.16,42.5s41.16-14.16,41.16-42.5v-129.28h80.97v144.94c0,31.02-10.22,54.28-30.64,69.78-20.43,15.5-50.93,23.26-91.48,23.26s-71.06-7.76-91.48-23.26c-20.43-15.5-30.64-38.76-30.64-69.78v-144.94h80.97Z"/>
  </g>
</svg>